<mxfile host="app.diagrams.net" modified="2022-10-18T16:41:14.854Z" agent="5.0 (Macintosh; Intel Mac OS X 10_15_7) AppleWebKit/537.36 (KHTML, like Gecko) Chrome/106.0.0.0 Safari/537.36" etag="OiXWZ1FfduNoVKUyJkE9" version="20.4.1" type="github">
  <diagram id="PLOv8x_xq1jnSQjsNkz1" name="Page-1">
    <mxGraphModel dx="2253" dy="769" grid="1" gridSize="10" guides="1" tooltips="1" connect="1" arrows="1" fold="1" page="1" pageScale="1" pageWidth="827" pageHeight="1169" math="0" shadow="0">
      <root>
        <mxCell id="0" />
        <mxCell id="1" parent="0" />
        <mxCell id="VCFKWOYKA717kCY8pGzM-2" value="" style="rounded=0;whiteSpace=wrap;html=1;" vertex="1" parent="1">
          <mxGeometry x="170" y="157.9" width="120" height="60" as="geometry" />
        </mxCell>
        <mxCell id="VCFKWOYKA717kCY8pGzM-3" value="" style="rounded=0;whiteSpace=wrap;html=1;" vertex="1" parent="1">
          <mxGeometry x="180" y="167.9" width="120" height="60" as="geometry" />
        </mxCell>
        <mxCell id="VCFKWOYKA717kCY8pGzM-11" style="edgeStyle=orthogonalEdgeStyle;rounded=0;orthogonalLoop=1;jettySize=auto;html=1;entryX=0;entryY=0.5;entryDx=0;entryDy=0;entryPerimeter=0;" edge="1" parent="1" source="VCFKWOYKA717kCY8pGzM-4" target="VCFKWOYKA717kCY8pGzM-9">
          <mxGeometry relative="1" as="geometry" />
        </mxCell>
        <mxCell id="VCFKWOYKA717kCY8pGzM-4" value="Theatre Management service" style="rounded=0;whiteSpace=wrap;html=1;" vertex="1" parent="1">
          <mxGeometry x="190" y="177.9" width="120" height="60" as="geometry" />
        </mxCell>
        <mxCell id="VCFKWOYKA717kCY8pGzM-8" style="edgeStyle=orthogonalEdgeStyle;rounded=0;orthogonalLoop=1;jettySize=auto;html=1;exitX=1;exitY=0.5;exitDx=0;exitDy=0;exitPerimeter=0;entryX=0.25;entryY=1;entryDx=0;entryDy=0;" edge="1" parent="1" source="VCFKWOYKA717kCY8pGzM-5" target="VCFKWOYKA717kCY8pGzM-4">
          <mxGeometry relative="1" as="geometry">
            <mxPoint x="190" y="207.9" as="targetPoint" />
            <mxPoint x="-49.75" y="239.4" as="sourcePoint" />
          </mxGeometry>
        </mxCell>
        <mxCell id="VCFKWOYKA717kCY8pGzM-5" value="" style="outlineConnect=0;dashed=0;verticalLabelPosition=bottom;verticalAlign=top;align=center;html=1;shape=mxgraph.aws3.mobile_client;fillColor=#D2D3D3;gradientColor=none;" vertex="1" parent="1">
          <mxGeometry x="-100.25" y="210" width="40.5" height="63" as="geometry" />
        </mxCell>
        <mxCell id="VCFKWOYKA717kCY8pGzM-7" style="edgeStyle=orthogonalEdgeStyle;rounded=0;orthogonalLoop=1;jettySize=auto;html=1;entryX=0;entryY=0.75;entryDx=0;entryDy=0;" edge="1" parent="1" source="VCFKWOYKA717kCY8pGzM-6" target="VCFKWOYKA717kCY8pGzM-2">
          <mxGeometry relative="1" as="geometry" />
        </mxCell>
        <mxCell id="VCFKWOYKA717kCY8pGzM-6" value="desktop" style="sketch=0;outlineConnect=0;gradientColor=none;fontColor=#545B64;strokeColor=none;fillColor=#879196;dashed=0;verticalLabelPosition=bottom;verticalAlign=top;align=center;html=1;fontSize=12;fontStyle=0;aspect=fixed;shape=mxgraph.aws4.illustration_desktop;pointerEvents=1" vertex="1" parent="1">
          <mxGeometry x="-120" y="110" width="80" height="72.8" as="geometry" />
        </mxCell>
        <mxCell id="VCFKWOYKA717kCY8pGzM-29" style="edgeStyle=orthogonalEdgeStyle;rounded=0;orthogonalLoop=1;jettySize=auto;html=1;entryX=0.5;entryY=0;entryDx=0;entryDy=0;entryPerimeter=0;" edge="1" parent="1" source="VCFKWOYKA717kCY8pGzM-9" target="VCFKWOYKA717kCY8pGzM-27">
          <mxGeometry relative="1" as="geometry" />
        </mxCell>
        <mxCell id="VCFKWOYKA717kCY8pGzM-9" value="Postgres-W" style="shape=cylinder3;whiteSpace=wrap;html=1;boundedLbl=1;backgroundOutline=1;size=15;" vertex="1" parent="1">
          <mxGeometry x="449" y="140" width="60" height="80" as="geometry" />
        </mxCell>
        <mxCell id="VCFKWOYKA717kCY8pGzM-16" value="Payment Gateway" style="ellipse;shape=cloud;whiteSpace=wrap;html=1;" vertex="1" parent="1">
          <mxGeometry x="130" y="570" width="140" height="80" as="geometry" />
        </mxCell>
        <mxCell id="VCFKWOYKA717kCY8pGzM-23" style="edgeStyle=orthogonalEdgeStyle;rounded=0;orthogonalLoop=1;jettySize=auto;html=1;entryX=0;entryY=0.5;entryDx=0;entryDy=0;" edge="1" parent="1" source="VCFKWOYKA717kCY8pGzM-18" target="VCFKWOYKA717kCY8pGzM-20">
          <mxGeometry relative="1" as="geometry">
            <Array as="points">
              <mxPoint x="-30" y="488" />
              <mxPoint x="-30" y="440" />
            </Array>
          </mxGeometry>
        </mxCell>
        <mxCell id="VCFKWOYKA717kCY8pGzM-18" value="" style="outlineConnect=0;dashed=0;verticalLabelPosition=bottom;verticalAlign=top;align=center;html=1;shape=mxgraph.aws3.mobile_client;fillColor=#D2D3D3;gradientColor=none;" vertex="1" parent="1">
          <mxGeometry x="-100.25" y="456.79999999999995" width="40.5" height="63" as="geometry" />
        </mxCell>
        <mxCell id="VCFKWOYKA717kCY8pGzM-22" style="edgeStyle=orthogonalEdgeStyle;rounded=0;orthogonalLoop=1;jettySize=auto;html=1;entryX=0;entryY=0.5;entryDx=0;entryDy=0;" edge="1" parent="1" source="VCFKWOYKA717kCY8pGzM-19" target="VCFKWOYKA717kCY8pGzM-20">
          <mxGeometry relative="1" as="geometry" />
        </mxCell>
        <mxCell id="VCFKWOYKA717kCY8pGzM-19" value="desktop" style="sketch=0;outlineConnect=0;gradientColor=none;fontColor=#545B64;strokeColor=none;fillColor=#879196;dashed=0;verticalLabelPosition=bottom;verticalAlign=top;align=center;html=1;fontSize=12;fontStyle=0;aspect=fixed;shape=mxgraph.aws4.illustration_desktop;pointerEvents=1" vertex="1" parent="1">
          <mxGeometry x="-120" y="354" width="80" height="72.8" as="geometry" />
        </mxCell>
        <mxCell id="VCFKWOYKA717kCY8pGzM-25" style="edgeStyle=orthogonalEdgeStyle;rounded=0;orthogonalLoop=1;jettySize=auto;html=1;entryX=0;entryY=0.5;entryDx=0;entryDy=0;" edge="1" parent="1" source="VCFKWOYKA717kCY8pGzM-20" target="VCFKWOYKA717kCY8pGzM-21">
          <mxGeometry relative="1" as="geometry" />
        </mxCell>
        <mxCell id="VCFKWOYKA717kCY8pGzM-20" value="LB" style="rounded=0;whiteSpace=wrap;html=1;" vertex="1" parent="1">
          <mxGeometry y="346.8" width="40" height="187.2" as="geometry" />
        </mxCell>
        <mxCell id="VCFKWOYKA717kCY8pGzM-21" value="" style="whiteSpace=wrap;html=1;aspect=fixed;fillColor=none;dashed=1;" vertex="1" parent="1">
          <mxGeometry x="100" y="320.4" width="240" height="240" as="geometry" />
        </mxCell>
        <mxCell id="VCFKWOYKA717kCY8pGzM-47" style="edgeStyle=orthogonalEdgeStyle;rounded=0;orthogonalLoop=1;jettySize=auto;html=1;entryX=0.5;entryY=0;entryDx=0;entryDy=0;exitX=0.5;exitY=1;exitDx=0;exitDy=0;exitPerimeter=0;" edge="1" parent="1" source="VCFKWOYKA717kCY8pGzM-51" target="VCFKWOYKA717kCY8pGzM-44">
          <mxGeometry relative="1" as="geometry">
            <mxPoint x="410" y="540" as="sourcePoint" />
          </mxGeometry>
        </mxCell>
        <mxCell id="VCFKWOYKA717kCY8pGzM-48" style="edgeStyle=orthogonalEdgeStyle;rounded=0;orthogonalLoop=1;jettySize=auto;html=1;entryX=0.5;entryY=0;entryDx=0;entryDy=0;exitX=0.5;exitY=1;exitDx=0;exitDy=0;exitPerimeter=0;" edge="1" parent="1" source="VCFKWOYKA717kCY8pGzM-51" target="VCFKWOYKA717kCY8pGzM-45">
          <mxGeometry relative="1" as="geometry">
            <mxPoint x="410" y="540" as="sourcePoint" />
          </mxGeometry>
        </mxCell>
        <mxCell id="VCFKWOYKA717kCY8pGzM-27" value="Postgres-R" style="shape=cylinder3;whiteSpace=wrap;html=1;boundedLbl=1;backgroundOutline=1;size=15;" vertex="1" parent="1">
          <mxGeometry x="414" y="252.1" width="60" height="80" as="geometry" />
        </mxCell>
        <mxCell id="VCFKWOYKA717kCY8pGzM-28" value="NoSQL" style="shape=cylinder3;whiteSpace=wrap;html=1;boundedLbl=1;backgroundOutline=1;size=15;" vertex="1" parent="1">
          <mxGeometry x="491" y="252.1" width="60" height="80" as="geometry" />
        </mxCell>
        <mxCell id="VCFKWOYKA717kCY8pGzM-38" style="edgeStyle=orthogonalEdgeStyle;rounded=0;orthogonalLoop=1;jettySize=auto;html=1;entryX=0.5;entryY=1;entryDx=0;entryDy=0;entryPerimeter=0;exitX=0.98;exitY=0.429;exitDx=0;exitDy=0;exitPerimeter=0;" edge="1" parent="1" source="VCFKWOYKA717kCY8pGzM-49" target="VCFKWOYKA717kCY8pGzM-28">
          <mxGeometry relative="1" as="geometry">
            <mxPoint x="460" y="382.5" as="sourcePoint" />
          </mxGeometry>
        </mxCell>
        <mxCell id="VCFKWOYKA717kCY8pGzM-32" value="" style="rounded=0;whiteSpace=wrap;html=1;" vertex="1" parent="1">
          <mxGeometry x="150" y="342.5" width="120" height="60" as="geometry" />
        </mxCell>
        <mxCell id="VCFKWOYKA717kCY8pGzM-33" value="" style="rounded=0;whiteSpace=wrap;html=1;" vertex="1" parent="1">
          <mxGeometry x="160" y="352.5" width="120" height="60" as="geometry" />
        </mxCell>
        <mxCell id="VCFKWOYKA717kCY8pGzM-36" style="edgeStyle=orthogonalEdgeStyle;rounded=0;orthogonalLoop=1;jettySize=auto;html=1;entryX=-0.02;entryY=0.476;entryDx=0;entryDy=0;entryPerimeter=0;" edge="1" parent="1" source="VCFKWOYKA717kCY8pGzM-34" target="VCFKWOYKA717kCY8pGzM-49">
          <mxGeometry relative="1" as="geometry">
            <mxPoint x="370" y="382.5" as="targetPoint" />
            <Array as="points">
              <mxPoint x="360" y="370" />
              <mxPoint x="360" y="385" />
            </Array>
          </mxGeometry>
        </mxCell>
        <mxCell id="VCFKWOYKA717kCY8pGzM-42" style="edgeStyle=orthogonalEdgeStyle;rounded=0;orthogonalLoop=1;jettySize=auto;html=1;entryX=0;entryY=0.5;entryDx=0;entryDy=0;" edge="1" parent="1" source="VCFKWOYKA717kCY8pGzM-34" target="VCFKWOYKA717kCY8pGzM-40">
          <mxGeometry relative="1" as="geometry" />
        </mxCell>
        <mxCell id="VCFKWOYKA717kCY8pGzM-52" style="edgeStyle=orthogonalEdgeStyle;rounded=0;orthogonalLoop=1;jettySize=auto;html=1;entryX=0;entryY=0.5;entryDx=0;entryDy=0;entryPerimeter=0;" edge="1" parent="1" source="VCFKWOYKA717kCY8pGzM-34" target="VCFKWOYKA717kCY8pGzM-51">
          <mxGeometry relative="1" as="geometry">
            <Array as="points">
              <mxPoint x="230" y="440" />
              <mxPoint x="310" y="440" />
              <mxPoint x="310" y="515" />
            </Array>
          </mxGeometry>
        </mxCell>
        <mxCell id="VCFKWOYKA717kCY8pGzM-34" value="Ticket booking service" style="rounded=0;whiteSpace=wrap;html=1;" vertex="1" parent="1">
          <mxGeometry x="170" y="362.5" width="120" height="60" as="geometry" />
        </mxCell>
        <mxCell id="VCFKWOYKA717kCY8pGzM-39" style="edgeStyle=orthogonalEdgeStyle;rounded=0;orthogonalLoop=1;jettySize=auto;html=1;entryX=0.4;entryY=0.1;entryDx=0;entryDy=0;entryPerimeter=0;" edge="1" parent="1" source="VCFKWOYKA717kCY8pGzM-35" target="VCFKWOYKA717kCY8pGzM-16">
          <mxGeometry relative="1" as="geometry" />
        </mxCell>
        <mxCell id="VCFKWOYKA717kCY8pGzM-35" value="Payment Service" style="rounded=0;whiteSpace=wrap;html=1;" vertex="1" parent="1">
          <mxGeometry x="160" y="458.3" width="120" height="60" as="geometry" />
        </mxCell>
        <mxCell id="VCFKWOYKA717kCY8pGzM-40" value="Log/Error" style="rounded=0;whiteSpace=wrap;html=1;fillColor=default;" vertex="1" parent="1">
          <mxGeometry x="370" y="440" width="90" height="30" as="geometry" />
        </mxCell>
        <mxCell id="VCFKWOYKA717kCY8pGzM-44" value="SMS" style="rounded=0;whiteSpace=wrap;html=1;fillColor=default;" vertex="1" parent="1">
          <mxGeometry x="309" y="580" width="100" height="40" as="geometry" />
        </mxCell>
        <mxCell id="VCFKWOYKA717kCY8pGzM-45" value="Email" style="rounded=0;whiteSpace=wrap;html=1;fillColor=default;" vertex="1" parent="1">
          <mxGeometry x="419" y="580" width="100" height="40" as="geometry" />
        </mxCell>
        <mxCell id="VCFKWOYKA717kCY8pGzM-50" style="edgeStyle=orthogonalEdgeStyle;rounded=0;orthogonalLoop=1;jettySize=auto;html=1;entryX=0.5;entryY=1;entryDx=0;entryDy=0;entryPerimeter=0;" edge="1" parent="1" source="VCFKWOYKA717kCY8pGzM-49" target="VCFKWOYKA717kCY8pGzM-27">
          <mxGeometry relative="1" as="geometry" />
        </mxCell>
        <mxCell id="VCFKWOYKA717kCY8pGzM-49" value="" style="sketch=0;aspect=fixed;html=1;points=[];align=center;image;fontSize=12;image=img/lib/mscae/Cache_Redis_Product.svg;fillColor=default;" vertex="1" parent="1">
          <mxGeometry x="389" y="363" width="55.95" height="47" as="geometry" />
        </mxCell>
        <mxCell id="VCFKWOYKA717kCY8pGzM-51" value="" style="outlineConnect=0;dashed=0;verticalLabelPosition=bottom;verticalAlign=top;align=center;html=1;shape=mxgraph.aws3.sqs;fillColor=#D9A741;gradientColor=none;" vertex="1" parent="1">
          <mxGeometry x="383.5" y="490" width="56.5" height="50" as="geometry" />
        </mxCell>
      </root>
    </mxGraphModel>
  </diagram>
</mxfile>
